<svg width="30" height="30" viewBox="0 0 30 30" fill="none" xmlns="http://www.w3.org/2000/svg">
<path d="M5 6.25H20" stroke="#0C0310" style="stroke:#0C0310;stroke:color(display-p3 0.0471 0.0118 0.0627);stroke-opacity:1;" stroke-width="2.5" stroke-linecap="round"/>
<path d="M5 15H12.5" stroke="#0C0310" style="stroke:#0C0310;stroke:color(display-p3 0.0471 0.0118 0.0627);stroke-opacity:1;" stroke-width="2.5" stroke-linecap="round"/>
<path d="M17.5 15H25" stroke="#0C0310" style="stroke:#0C0310;stroke:color(display-p3 0.0471 0.0118 0.0627);stroke-opacity:1;" stroke-width="2.5" stroke-linecap="round"/>
<path d="M10 23.75H25" stroke="#0C0310" style="stroke:#0C0310;stroke:color(display-p3 0.0471 0.0118 0.0627);stroke-opacity:1;" stroke-width="2.5" stroke-linecap="round"/>
<path d="M22.5 8.75C23.8807 8.75 25 7.63071 25 6.25C25 4.86929 23.8807 3.75 22.5 3.75C21.1193 3.75 20 4.86929 20 6.25C20 7.63071 21.1193 8.75 22.5 8.75Z" stroke="#0C0310" style="stroke:#0C0310;stroke:color(display-p3 0.0471 0.0118 0.0627);stroke-opacity:1;" stroke-width="2.5" stroke-linecap="round"/>
<path d="M15 17.5C16.3807 17.5 17.5 16.3807 17.5 15C17.5 13.6193 16.3807 12.5 15 12.5C13.6193 12.5 12.5 13.6193 12.5 15C12.5 16.3807 13.6193 17.5 15 17.5Z" stroke="#0C0310" style="stroke:#0C0310;stroke:color(display-p3 0.0471 0.0118 0.0627);stroke-opacity:1;" stroke-width="2.5" stroke-linecap="round"/>
<path d="M7.5 26.25C8.88071 26.25 10 25.1307 10 23.75C10 22.3693 8.88071 21.25 7.5 21.25C6.11929 21.25 5 22.3693 5 23.75C5 25.1307 6.11929 26.25 7.5 26.25Z" stroke="#0C0310" style="stroke:#0C0310;stroke:color(display-p3 0.0471 0.0118 0.0627);stroke-opacity:1;" stroke-width="2.5" stroke-linecap="round"/>
</svg>
